<?xml version="1.0" standalone="no"?>
<!DOCTYPE svg PUBLIC "-//W3C//DTD SVG 1.1//EN" "http://www.w3.org/Graphics/SVG/1.1/DTD/svg11.dtd" >
<!--
2013-9-30: Created.
-->
<svg>
<metadata>
Created by iconfont
</metadata>
<defs>

<font id="iconfont" horiz-adv-x="1024" >
  <font-face
    font-family="iconfont"
    font-weight="500"
    font-stretch="normal"
    units-per-em="1024"
    ascent="896"
    descent="-128"
  />
    <missing-glyph />
    
    <glyph glyph-name="qiandao" unicode="&#58996;" d="M511.5175456-90.70492373000002c-261.7338912 0-474.67545173 212.9251872-474.67545173 474.67545173 0 261.73498347 212.94156053 474.66126187 474.67545173 474.66126187s474.65907947-212.9251872 474.65907947-474.66126187C986.176624 122.22026453000001 773.2514368-90.70492373000002 511.5175456-90.70492373000002L511.5175456-90.70492373000002zM511.51645333 802.49457707c-230.7945696 0-418.53823893-187.74476053-418.53823893-418.52514027 0-230.77492267 187.74366827-418.53823893 418.53823893-418.53823893 230.77492267 0 418.52514027 187.76331627 418.52514027 418.53823893C930.0415936 614.7498175999999 742.291376 802.49457707 511.51645333 802.49457707L511.51645333 802.49457707zM299.10100907 62.59234879999997c-13.71284907 0-24.83987093 7.42456427-24.83987094 16.6075776L274.26113813 593.992256c0 9.16773227 11.12702187 16.6064864 24.83987094 16.6064864 13.7117568 0 24.83987093-7.43875413 24.83987093-16.6064864l0-514.7923296C323.94088 70.01691200000005 312.81167467 62.59234879999997 299.10100907 62.59234879999997L299.10100907 62.59234879999997zM683.7724512 267.8604768c-49.64917973 0-99.2525152 10.3629536-147.21528533 20.41263893-46.2949184 9.6796576-94.19110613 19.69441493-140.4052512 19.69441494-36.33692053 0-68.68431253-6.1485696-98.87375467-18.76661654-5.12799253-2.14375787-10.99167253-1.59144533-15.60883093 1.5095808-4.6313472 3.070464-7.40928213 8.24102613-7.40928214 13.80017067l0 315.60400427c0 6.68996693 4.01900053 12.7359328 10.19594987 15.30975253 34.3296032 14.36667307 70.8597248 21.34043627 111.69591787 21.34043627 49.65572907 0 99.25906347-10.37932693 147.2163776-20.39189974 46.29928427-9.68511573 94.19001387-19.69441493 140.40416-19.69441493 36.33692053 0 68.68540373 6.14202027 98.87375466 18.7458784 5.1334496 2.15904 10.99822187 1.59690347 15.59464107-1.49429973 4.6520864-3.070464 7.42456427-8.25085013 7.42456427-13.8154528l0-315.60400427c0-6.69105813-4.01900053-12.7359328-10.19704214-15.3261248C761.12894187 274.83969813 724.60973653 267.8604768 683.7724512 267.8604768L683.7724512 267.8604768zM405.80755947 349.30146027c46.70860693 0 93.36918613-9.5606816 138.4808896-18.82555947 43.55191147-8.928688 88.6013984-18.16518613 132.07253653-18.16518613 30.36626987 0 57.76795413 4.47307627 83.4155552 13.63098453L759.7765408 584.72192c-25.96086933-7.99324907-53.46733973-11.91619627-83.4155552-11.91619627-46.7031488 0-93.3626368 9.57378027-138.47870613 18.8113696-43.5475456 8.928688-88.6024896 18.16627733-132.0736288 18.16627734-30.36626987 0-57.76358827-4.47416747-83.414464-13.63207574l0-258.7802208C348.355056 345.39816107 375.84624533 349.30146027 405.80755947 349.30146027L405.80755947 349.30146027zM396.15300587 321.5144672"  horiz-adv-x="1024" />

    
    <glyph glyph-name="cart" unicode="&#58890;" d="M1003.442802 728.054987c-9.960863 11.328-23.089881 17.323551-37.997406 17.323551l-752.437048 0C202.701608 803.404092 150.935618 848.10927 91.855034 848.10927L24.385387 848.10927c-12.900821 0-23.340591-10.43977-23.340591-23.340591s10.43977-23.340591 23.340591-23.340591l67.469648 0c38.08848 0 71.549569-29.860075 76.381621-69.156056l33.232892-191.808514 58.921971-414.867776c3.418866-28.514427 28.560476-51.696406 56.04955-51.696406l609.366561 0c12.900821 0 23.340591 10.43977 23.340591 23.340591 0 12.900821-10.43977 23.340591-23.340591 23.340591L316.441069 120.58051799999998c-3.327792 0-9.003048 4.740978-9.756201 11.07729l-11.478426 80.802304 112.454188 9.484002 485.847363 35.877115c31.888268 0.182149 59.833737 24.52558 63.434751 54.248531l62.751183 359.251084C1022.202051 692.177871 1015.95579 713.945641 1003.442802 728.054987zM849.442382 1.2098039999999628c-34.740222 0-63.005986-28.265764-63.005986-63.001893 0-34.716686 28.28009-62.977333 63.005986-62.977333 34.69622 0 62.972217 28.266787 62.972217 62.977333C912.414599-27.055960000000027 884.152928 1.2098039999999628 849.442382 1.2098039999999628zM355.396289 1.2098039999999628c-34.740222 0-63.004963-28.265764-63.004963-63.001893 0-34.716686 28.28009-62.977333 63.004963-62.977333 34.69622 0 62.972217 28.266787 62.972217 62.977333C418.368506-27.055960000000027 390.108882 1.2098039999999628 355.396289 1.2098039999999628z"  horiz-adv-x="1024" />

    
    <glyph glyph-name="global" unicode="&#58901;" d="M476.672 730.0096L476.672 730.0096c-22.4256 11.4688-40.1408 14.336-41.984 14.6432-5.3248 0.8192-10.752 0.4096-15.7696-1.2288-19.968-6.2464-34.9184-19.3536-43.3152-37.888-14.336-31.5392-5.2224-70.8608 2.9696-94.72-9.5232-25.7024-10.0352-49.7664-1.6384-71.5776 13.824-35.6352 45.9776-49.2544 50.0736-50.7904 3.9936-1.6384 8.2944-2.4576 12.5952-2.4576 1.8432 0 3.7888 0.2048 5.632 0.512 5.0176 0.8192 10.0352 1.8432 15.2576 3.2768 28.4672 7.68 50.9952 22.4256 66.8672 44.1344 15.6672 21.2992 24.064 48.128 24.8832 79.7696 0.4096 14.1312-4.8128 32.256-15.4624 53.9648C527.2576 686.7968 491.8272 722.3296 476.672 730.0096zM452.608 519.3728c-4.1984-1.1264-8.192-1.9456-12.1856-2.6624l-0.1024 0c-0.6144-0.1024-1.2288 0-1.8432 0.2048l-0.2048 0.1024c-0.2048 0.1024-23.2448 9.216-32.5632 33.28-6.144 15.7696-4.9152 34.0992 3.584 54.272l2.3552 5.632-2.1504 5.7344c-4.3008 11.5712-17.408 51.2-5.8368 76.9024 4.8128 10.5472 13.1072 17.7152 24.6784 21.2992l0.3072 0.1024c0.2048 0.1024 0.4096 0.1024 0.7168 0.1024 0.2048 0 0.512 0 0.8192-0.1024 0.1024 0 14.4384-2.2528 32.6656-11.5712l0 0c8.0896-4.096 39.424-34.304 46.4896-48.7424 8.0896-16.384 12.5952-30.8224 12.288-39.5264C520.192 564.0192 496.3328 531.1487999999999 452.608 519.3728zM512 832C264.6016 832 64 631.3984 64 384S264.6016-64 512-64 960 136.60159999999996 960 384 759.3984 832 512 832zM876.8512 586.752c-14.6432-19.5584-21.504-44.7488-19.8656-73.9328 1.536-27.4432 10.0352-49.0496 10.8544-50.9952l0 0c0.2048-0.512 0.3072-1.1264 0.3072-1.7408-2.3552-33.0752-13.0048-56.7296-31.5392-70.5536-6.3488-4.7104-13.7216-8.192-21.7088-10.3424-15.6672-4.1984-29.5936-2.2528-33.5872-1.536l-1.024 0.2048-1.024 0c-49.8688 2.048-66.6624 73.728-71.5776 104.448l-2.1504 13.2096-13.312-0.3072c-36.864-0.7168-64.3072 34.816-74.1376 54.4768-28.8768 88.9856 73.8304 168.3456 108.7488 192.2048 29.0816-17.5104 56.0128-38.5024 80.2816-62.7712C834.7648 651.3664 858.0096 620.4416 876.8512 586.752zM127.488 221.59360000000004c-10.24 24.064-18.0224 48.8448-23.4496 74.24 17.3056-0.7168 37.6832 2.048 58.6752 5.0176 21.0944 2.8672 45.056 6.2464 54.784 3.072l3.6864-1.2288 3.8912 0.7168c19.968 3.7888 68.1984 16.5888 85.1968 54.3744l1.3312 2.9696 0 3.2768c0 7.2704 1.3312 31.5392 16.6912 39.0144 19.0464 9.3184 45.7728-14.2336 54.4768-22.016l1.1264-1.024 0.9216-0.6144c8.704-5.7344 24.3712-5.2224 41.7792 13.2096 0.4096 0.4096 0.8192 0.7168 1.3312 0.9216l0.2048 0.1024c0.2048 0.1024 20.2752 8.192 43.6224-2.048 16.0768-6.9632 29.4912-20.7872 40.0384-41.0624l6.4512-12.4928 13.0048 5.4272c19.5584 8.0896 48.3328 16.1792 74.752 8.2944 20.1728-6.0416 35.6352-20.2752 46.1824-42.2912 0.1024-0.2048 0.2048-0.4096 0.2048-0.6144 0.1024-0.4096 2.7648-9.9328-4.1984-22.016-9.5232-16.5888-33.28-30.208-70.656-40.3456l-3.1744-0.9216-2.56-2.1504c-24.8832-20.5824-43.52-59.4944-21.2992-106.9056 0.2048-0.512 0.4096-1.024 0.4096-1.536 0.512-23.1424-10.8544-69.2224-57.5488-78.1312l-1.4336-0.3072-142.336-57.0368c0 0-0.1024 0-0.1024 0-49.664 20.992-94.3104 51.0976-132.608 89.3952S148.48 171.92960000000005 127.488 221.59360000000004zM807.0144 88.98559999999998c-38.2976-38.2976-82.944-68.4032-132.608-89.3952-51.4048-21.7088-106.0864-32.768-162.4064-32.768-40.6528 0-80.384 5.7344-118.784 17.1008l107.52 43.1104c65.6384 13.5168 81.7152 76.8 80.9984 108.7488-0.1024 4.8128-1.2288 9.4208-3.1744 13.7216l-0.1024 0.1024c-16.896 35.84 0.2048 58.4704 10.6496 68.1984 44.1344 12.4928 72.192 30.1056 85.8112 53.76 12.5952 21.9136 8.4992 40.7552 6.9632 46.08-0.512 1.6384-1.1264 3.2768-1.9456 4.9152-14.4384 30.208-36.2496 49.9712-65.1264 58.5728-29.3888 8.8064-59.4944 3.3792-82.6368-4.5056-12.9024 20.3776-29.0816 34.9184-48.2304 43.2128-34.4064 15.0528-63.7952 3.7888-67.6864 2.2528-4.5056-1.8432-8.6016-4.608-11.9808-8.192-2.56-2.7648-4.7104-4.4032-6.144-5.4272-15.872 13.5168-49.8688 38.6048-83.2512 22.3232-28.2624-13.6192-33.28-46.08-33.8944-62.8736-11.776-21.504-44.2368-30.6176-58.368-33.5872-16.1792 3.584-38.6048 0.512-64.2048-3.072-19.5584-2.6624-44.6464-6.144-59.904-4.1984-2.56 18.7392-3.7888 37.7856-3.7888 56.9344 0 56.32 11.0592 111.0016 32.768 162.4064 20.992 49.664 51.0976 94.3104 89.3952 132.608s82.944 68.4032 132.608 89.3952c51.4048 21.7088 106.0864 32.768 162.4064 32.768s111.0016-11.0592 162.4064-32.768c7.5776-3.1744 15.0528-6.656 22.3232-10.24-22.016-16.2816-52.5312-41.984-76.5952-74.4448-16.2816-21.9136-27.4432-44.2368-33.1776-66.2528-7.0656-26.624-6.2464-53.0432 2.2528-78.4384l0.3072-0.9216 0.4096-0.9216c12.1856-25.088 43.8272-65.9456 89.6-71.9872 3.8912-19.456 10.6496-43.4176 22.2208-64.7168 18.1248-33.28 44.1344-51.712 75.264-53.3504 3.6864-0.6144 9.8304-1.3312 17.3056-1.3312 8.0896 0 18.0224 0.8192 28.4672 3.6864 11.776 3.1744 22.528 8.2944 32.0512 15.36 26.2144 19.3536 40.96 50.688 43.9296 93.0816 0.4096 5.5296-0.512 11.0592-2.7648 16.0768-0.9216 2.3552-16.9984 44.6464-2.7648 79.7696 1.1264-2.4576 2.1504-4.9152 3.1744-7.2704 21.7088-51.4048 32.768-106.0864 32.768-162.4064s-11.0592-111.0016-32.768-162.4064C875.52 171.92960000000005 845.4144 127.28319999999997 807.0144 88.98559999999998z"  horiz-adv-x="1024" />

    
    <glyph glyph-name="exit" unicode="&#59010;" d="M584.470443 218.082c-3.66 0-6.515 0-9.36 0-97.805 0-195.607-0.01-293.414 0-14.5 0.005-23.95 6.65-26.28 18.54-0.458 2.375-0.415 4.87-0.415 7.3-0.018 86.915-0.02 173.825-0.012 260.739 0.003 16.485 8.93 25.255 25.672 25.255 98.247 0.005 196.497 0.005 294.749 0.005 2.645 0 5.31 0 9.06 0 0 2.82 0 5.362 0 7.912 0 77.352-0.01 154.71 0.01 232.069 0 10.645 5.075 19.135 13.67 22.387 9.89 3.745 18.665 2.02 26.12-5.857 4.275-4.517 8.93-8.672 13.32-13.065 55.385-55.265 110.76-110.555 166.13-165.82 71.12-70.965 142.245-141.912 213.365-212.874 11.84-11.802 11.905-24.252 0.205-35.927-101.78-101.605-203.549-203.219-305.359-304.784-28.955-28.885-58.065-57.595-86.995-86.505-7.445-7.45-15.75-10.715-25.915-6.855-9.885 3.75-14.54 11.53-14.54 23.765-0.015 74.905-0.01 149.82-0.01 224.724C584.470443 211.73699999999997 584.470443 214.37699999999995 584.470443 218.082zM401.643443 789.828c0-29.415 0-58.215 0-87.827-2.882 0-5.477 0-8.07 0-74.465 0-148.93 0.01-223.394-0.005-47.187-0.007-81.935-34.827-81.937-82.107-0.007-163.602 0.293-327.202-0.197-490.791-0.135-43.285 32.795-74.47 63.24-80.165 6.727-1.245 13.677-1.81 20.525-1.825 73.797-0.13 147.597-0.08 221.397-0.08 2.622 0 5.247 0 8.302 0 0-29.325 0-58.115 0-87.325-1.05-0.21-2.275-0.68-3.503-0.68-78.467 0-156.942-0.8-235.389 0.34-76.67 1.1-144.565 59.285-159.197 134.595-2.065 10.61-3.075 21.595-3.087 32.405-0.19 165.385-0.627 330.762 0.102 496.134 0.305 69.077 34.625 118.665 94.56 150.892 21.145 11.375 44.502 16.512 68.577 16.572 77.797 0.21 155.595 0.08 233.394 0.075C398.281443 790.035 399.593443 789.92 401.643443 789.828z"  horiz-adv-x="1027" />

    
    <glyph glyph-name="dialogue" unicode="&#58969;" d="M851.235215 168.35459200000003c70.898747 69.800739 109.61042 158.180626 109.61042 251.621784 0 211.786521-201.347774 384.090818-448.842565 384.090818S63.154365 631.7628970000001 63.154365 419.976376c0-211.792661 201.353914-384.097982 448.848705-384.097982 62.845327 0 123.418914 10.855232 180.363857 32.299637l166.763095-98.830913c6.127558-3.634784 12.963243-5.415336 19.760043-5.415336 9.157567 0 18.251689 3.243881 25.490557 9.55461 12.609179 10.993378 16.743336 28.841885 10.255575 44.26618L851.235215 168.35459200000003zM769.1855 163.36904400000003l28.368094-67.38369-82.069157 48.63979c-6.065136 3.590781-12.899798 5.415336-19.766183 5.415336-5.124717 0-10.261715-1.016143-15.101953-3.060709-52.633754-22.265096-109.364827-33.550117-168.612209-33.550117-204.736964 0-371.298468 137.518027-371.298468 306.546721S307.266106 726.5169579999999 512.00307 726.5169579999999c204.730825 0 371.292328-137.511887 371.292328-306.540581 0-79.349209-36.812417-154.696268-103.646592-212.159004C766.881015 196.84241299999996 762.652713 178.88134200000002 769.1855 163.36904400000003zM337.511967 416.313963m-51.700499 0a50.523 50.523 0 1 1 103.400998 0 50.523 50.523 0 1 1-103.400998 0ZM505.537821 416.313963m-51.700499 0a50.523 50.523 0 1 1 103.400998 0 50.523 50.523 0 1 1-103.400998 0ZM673.563676 416.313963m-51.700499 0a50.523 50.523 0 1 1 103.400998 0 50.523 50.523 0 1 1-103.400998 0Z"  horiz-adv-x="1024" />

    
    <glyph glyph-name="page1st" unicode="&#58910;" d="M997.31951047 488.56533902L549.38143858 865.16472377c-0.07917227 0.0663643-0.16183751 0.12690773-0.24217373 0.19443712-0.46222563 0.38654635-0.93376512 0.7579557-1.40646855 1.12703716-0.18395819 0.14437262-0.36675243 0.28990919-0.55420473 0.43078883-0.5681755 0.43195392-1.1433381 0.84877085-1.72432042 1.25743901-0.09197909 0.06520035-0.18395819 0.13040071-0.27593842 0.19443712-0.66248363 0.45989661-1.33428224 0.90232832-2.01190172 1.3319532-0.0081499 0.00349298-0.01513586 0.0081499-0.02212182 0.01280683-20.87581013 13.17749191-48.77930496 11.62781469-67.97154532-4.63040171L27.33365931 488.56533902c-23.41513785-19.66843677-25.78331421-53.87542528-5.33130696-76.37659079 20.45200725-22.48603079 56.04101347-24.81112747 79.44218056-5.12871993l38.5952165 32.4489034 0-317.66626191c0-74.79315001 63.30388594-135.67180914 141.09043825-135.67180913l84.09120996 0c31.08551339 0 56.28784413 24.23130909 56.28784412 54.12458382L421.50924174 295.83492096c0 15.09275648 12.78279566 27.39586275 28.47050639 27.39586275l124.63196387 0c15.71798357 0 28.52988587-12.30310627 28.52988587-27.39586275l0-249.19057749c0-3.70362254 0.39236722-7.39443826 1.19107356-11.03984526l1.36455396-6.34773618c5.44657181-25.08706589 28.45537053-43.08473856 55.11190642-43.08473856l82.71035619 0c77.80168818 0 141.10441017 60.87866027 141.10441017 135.67180914l0 317.65461902 38.58124458-32.43726052c10.67658581-8.96157923 23.89366329-13.36377913 37.04088235-13.36377913 15.65860409 0 31.27529358 6.26041401 42.40129707 18.49249792C1023.10049565 434.68991374 1020.73348437 468.89806621 997.31951047 488.56533902z"  horiz-adv-x="1024" />

    
    <glyph glyph-name="consultant" unicode="&#59039;" d="M691.537026 323.381387l-69.792553 17.453511c29.427216 26.164916 53.459562 62.158688 69.515237 101.597933 22.518876 4.967128 43.159986 23.722284 46.570665 65.004503 3.198855 38.873356-8.658194 56.209186-24.62791 63.748906-0.169869 4.637624-0.406253 9.18008-0.662079 13.603833 20.470217 113.537869-60.643172 153.221684-66.955948 155.151639-10.576893 16.044418-82.181721 113.707738-212.106816 34.4363-19.062148-11.599176-49.234331-34.458813-65.314565-57.477063-19.402909-24.350594-33.499975-59.566654-39.277562-110.467951-4.009314-0.447185-7.996115-1.076518-11.919471-1.960655-1.087774 24.990161 0.319272 98.610902 46.954405 150.981666 34.522258 38.692231 86.915535 58.320267 155.684782 58.320267 68.87567 0 122.377188-19.776416 158.947082-58.778708 60.067051-64.076364 54.630225-159.702282 54.56678-160.663166-0.36225-5.128811 3.539616-9.552563 8.658194-9.871835 0.233314-0.032746 0.404206-0.032746 0.639566-0.032746 4.841262 0 8.912997 3.764744 9.29776 8.68787 0.277316 4.233418 6.076392 104.413048-59.495022 174.523849-40.257889 42.990117-98.322329 64.802912-172.613336 64.802912-74.419943 0-131.504056-21.771863-169.716356-64.706721-55.868425-62.755276-52.860928-149.649322-51.28299-169.874969-21.750373-11.620665-37.445844-36.910655-32.989345-91.084485 5.887081-71.369468 47.317679-96.232738 86.512353-96.232738 7.589862 0 14.328333 1.65264 20.278859 4.692882 22.409382-14.534018 58.447157-27.123754 116.105345-29.449729 5.67321-8.518001 17.507746-14.361079 31.283494-14.361079 19.169595 0 34.713616 11.43954 34.713616 25.567305 0 14.127765-15.545044 25.577538-34.713616 25.577538-15.651468 0-28.895097-7.601118-33.244148-18.051121-37.871539 1.804089-64.951291 8.221242-84.313268 16.335037-26.420743 35.524075-38.95829 95.848998-38.95829 130.329301 0 12.741185 0.384763 24.608467 1.130753 35.633568 122.20425-4.105504 194.877409 45.313022 234.558154 88.236624 51.134611-50.953486 69.322855-119.902834 75.402317-152.869666-11.878538-90.412173-76.338642-186.378851-154.575518-186.378851-33.692357 0-64.802912 17.760502-90.285283 45.195342-26.01449 5.415336-47.701418 13.924127-64.910359 25.449625 14.053064-25.139563 31.53932-47.635927 51.689243-65.49569l-69.940932-17.538445c-95.55224-23.947412-161.782663-109.358687-161.782663-207.798696l0-117.867478c0-33.423227 26.314319-61.134359 59.750849-61.134359l548.785811 0c33.434483 0 60.60224 27.711132 60.60224 61.134359L853.706499 115.61441300000001C853.724919 214.04418999999996 787.045263 299.51891 691.537026 323.381387zM662.622486 292.21762l-90.839915-62.191434-27.656897 70.764694c12.496615 2.345418 24.586978 6.449899 36.207643 12.057617L662.622486 292.21762zM457.764771 312.98562000000004c11.408841-5.478781 23.329335-9.54233 35.697013-11.92868l-27.785833-71.050196-90.837868 62.210877L457.764771 312.98562000000004zM437.59336-25.120888000000036L333.023746-25.120888000000036l0 49.480948c0 5.149277-4.13825 9.307993-9.278317 9.307993-5.13802 0-9.275247-4.15974-9.275247-9.307993l0-49.480948-70.133314 0c-12.900821 0-22.623253 10.000771-22.623253 22.890336L221.713614 115.59292400000004c0 79.868025 52.754504 149.372006 129.391952 170.548304l114.720811-78.620615c1.172709-12.026918 11.17348-21.868053 23.988344-22.230304L437.59336-25.120888000000036zM503.931231 276.37377100000003l8.699126 22.378683c2.388397-0.140193 10.620895-0.181125 12.348236-0.096191l8.677637-22.283516L503.931231 276.372747zM816.579927-2.253063999999995c0-12.900821-10.599406-22.890336-23.477714-22.890336l-70.432119 0 0 49.470715c0 5.170766-4.13825 9.330506-9.275247 9.330506-5.182023 0-9.31925-4.15974-9.31925-9.330506l0-49.470715L599.695295-25.14340100000004l-52.221362 210.411197c12.729929 0.352017 22.688745 10.077519 24.012903 21.942755l115.253954 78.909188c76.615958-21.153786 129.796158-90.680279 129.796158-170.525792l0-117.824499 0.044002 0L816.58095-2.253063999999995z"  horiz-adv-x="1024" />

    
    <glyph glyph-name="camera" unicode="&#58889;" d="M902.63729038 709.16665117l-74.50324081 0c-25.49456896 0-62.48771584 22.9540773-72.82432683 35.37826929l-51.33376853 61.36882745c-18.21656064 21.74786674-58.22523165 58.22523165-122.04839368 58.22523164L446.65859755 864.13897955c-65.71863381 0-101.97943979-33.24644466-126.22471965-62.2292423l-49.91332921-59.68875066c-9.08732302-10.87451591-47.28551538-33.05317262-72.5658533-33.05317262l-72.82432682 0c-64.46934585 0-116.88008704-52.51902123-116.88008704-117.07336021l0-571.11466667c0-64.5764608 52.41074233-117.11643875 116.88008704-117.11643875l777.50575786 0c64.46934585 0 116.88008704 52.53997909 116.88008704 117.11643875L1019.51621347 592.09329095C1019.51737742 656.64879389 967.10663623 709.16665117 902.63729038 709.16665117zM446.65859755 785.75863694l135.22588444 0c30.40440093 0 50.51643335-16.40840989 62.01384732-30.14592739l52.66921472-62.98370504c21.66170965-25.92535779 79.41307278-61.82057415 132.94386632-61.82057414l73.08280035 0c21.27399936 0 38.63014514-17.37710365 38.63014514-38.71630336l0-571.11466667c0-21.33919971-17.31190329-38.71630336-38.58706659-38.71630336L125.13153251-17.73884301999999c-21.3170779 0-38.63014514 17.37710365-38.63014513 38.71630336L86.50138738 592.1142476800001c0 21.33919971 17.31190329 38.71630336 38.63014513 38.71630336l75.27866141 0c50.9029797 0 109.25744811 36.11061134 130.14373717 61.06727538l49.95640776 59.753951C398.59766158 773.24828672 415.22030251 785.75863694 446.65859755 785.75863694zM513.88382891 111.82623858c41.90297885 0 82.94438002 12.16571847 118.68823779 35.18499612 18.13040242 11.64877255 23.42794467 35.9382949 11.84320967 54.15485554-5.68525255 8.84980622-14.42677987 14.94372693-24.67606983 17.16170866-10.12005205 2.21798173-20.67205917 0.32250994-29.45666503-5.36157867-23.16947115-14.87969053-49.611776-22.75964018-76.3987126-22.75964018-78.29302045 0-142.03002539 63.84528384-142.03002539 142.28849892 0 78.46533689 63.73700381 142.31061959 142.03002539 142.31061959s141.98694571-63.84528384 141.9869457-142.31061959c0-21.59767325 17.57037682-39.16805006 39.19017188-39.16805006 21.57555143 0 39.10401365 17.57037682 39.10401365 39.16805006 0 121.70376192-98.7927643 220.68979826-220.27996729 220.68979826S293.56078421 454.17555513 293.56078421 332.47179435C293.56078421 210.81227491000004 392.39546197 111.82623858 513.88382891 111.82623858z"  horiz-adv-x="1024" />

    
    <glyph glyph-name="location1" unicode="&#58948;" d="M512.573563 438.781674c-63.548338 0-115.235534 52.224432-115.235534 116.486014 0 64.22372 51.687196 116.448152 115.235534 116.448152 63.551408 0 115.236558-52.224432 115.236558-116.448152C627.811144 491.006106 576.125995 438.781674 512.573563 438.781674zM512.573563 639.719102c-46.089711 0-83.566254-37.878702-83.566254-84.451414 0-46.569642 37.476543-84.4903 83.566254-84.4903 46.111201 0 83.587744 37.920658 83.587744 84.4903C596.161307 601.8404 558.684764 639.719102 512.573563 639.719102zM512.114099 31.254073999999946L500.115833 45.59878000000003c-10.462283 12.497639-256.374018 307.84939-256.374018 500.709863 0 154.788365 120.601752 280.69596 268.831748 280.69596 147.597593 0 268.199345-125.907595 268.87268-280.620235 0.807389-192.936197-246.720148-488.325811-257.258155-500.82345L512.114099 31.254073999999946zM512.573563 795.007865c-130.791835 0-237.182934-111.562888-237.182934-248.700245 0-157.866471 187.035814-402.835741 236.799194-465.213417 50.033533 62.337767 238.298338 307.269175 237.604536 465.135646C749.218238 683.443953 642.827139 795.007865 512.573563 795.007865zM704.840518 241.45958599999994l0-31.648814 63.33856 0 63.377446-237.165538L198.035844-27.354765000000043l63.377446 237.165538 47.493687 0L308.906977 241.45958599999994 229.705124 241.45958599999994l-79.162968-300.464189 728.527498 0L799.885198 241.45958599999994 704.840518 241.45958599999994z"  horiz-adv-x="1024" />

    
    <glyph glyph-name="arrow-b" unicode="&#58891;" d="M891.76122178 579.52473457c12.53749922-16.07210333 13.58978643-36.21844424 2.3474083-44.99649228l-366.6723961-286.01508164c-2.53627998-1.98765263-10.68475606-6.88033477-12.0698165-8.41829239-13.66173721-15.10076162-33.30442002-19.63368809-43.89923672-10.07317001l-345.32986641 311.40486737c-10.5948167 9.56951192-8.14847519 29.58993808 5.51326202 44.72667511 13.66173721 15.12774316 33.30442002 19.64268193 43.93521211 10.08216386l314.28291621-283.39785615 358.82071963 279.89922832C859.96777783 601.5148248 879.25070411 595.5878431599999 891.76122178 579.52473457z"  horiz-adv-x="1024" />

    
    <glyph glyph-name="search" unicode="&#59108;" d="M1000.81765136-38.537291849999974l-248.55134816 248.55134815C810.26161778 276.29441581000003 843.40179753 367.42991013000005 843.40179753 466.85044939c0 231.98125827-182.27098864 414.25224691-414.25224692 414.25224691S14.8973037 698.83170765 14.8973037 466.85044939s182.27098864-414.25224691 414.25224691-414.25224692c99.42053925 0 190.55603358 33.14017975 256.83639309 91.13549433l248.55134815-248.55134816c16.57008987-16.57008987 41.42522469-16.57008987 57.99531457 0C1009.1026963-88.24756147999994 1009.1026963-55.10738173000004 1000.81765136-38.537291849999974zM97.74775309 466.85044939c0 182.27098864 149.13080889 331.40179753 331.40179752 331.40179752s331.40179753-149.13080889 331.40179754-331.40179752c0-182.27098864-149.13080889-331.40179753-331.40179754-331.40179754S97.74775309 284.57946074999995 97.74775309 466.85044939z"  horiz-adv-x="1024" />

    
    <glyph glyph-name="Emptycart" unicode="&#58892;" d="M361.3 381.6V398l75.6 86.9c-8.6-0.5-16.1-0.7-22.7-0.7h-48.5v16.4h97.2v-13.3l-64.4-75.4-12.4-13.8c9 0.7 17.5 1 25.4 1h55v-17.3l-105.2-0.2zM536.4 490.6v18.3l85.2 97.9c-9.7-0.5-18.2-0.8-25.6-0.8h-54.6v18.4h109.4v-15l-72.4-85-14-15.5c10.2 0.8 19.7 1.2 28.6 1.2h61.9v-19.6l-118.5 0.1zM735.1 586.3v27.5L862.4 759.9c-14.5-0.8-27.2-1.1-38.3-1.1h-81.5V786.3h163.5v-22.4L797.8 637l-20.9-23.2c15.2 1.1 29.4 1.7 42.8 1.7h92.4v-29.2h-177zM721.4 252.39999999999998c8.5 0 16.5 4.2 21.3 11.3l142.8 208.4c5.5 7.9 6.1 18.2 1.6 26.7s-13.7 17.1-23.2 15.6c-5.4-0.9-13.8-8.2-17.9-12.1-8.9-8.5-31-41.4-31-41.4L707.7 304.20000000000005h-438V617c0 12.4-8.8 23.1-20.9 25.4l-155.1 30c-14.2 2.9-27.6-6.4-30.3-20.5-2.7-14 6.4-27.6 20.5-30.3l134.2-26v-104.9c0-0.7 0-1.4 0.1-2 0-0.7-0.1-1.4-0.1-2v-208.4c0-14.3 11.5-25.9 25.8-25.9h4.9l-0.2-73.5c-20.6-15.4-34.1-40.2-34.1-68.3 0-46.6 36.9-84.4 82.3-84.4 45.3 0 82.2 37.8 82.2 84.4 0 11.6-2.3 22.6-6.4 32.7H585c-4.1-10.1-6.4-21.1-6.4-32.7 0-46.6 36.9-84.4 82.2-84.4 45.4 0 82.3 37.8 82.3 84.4 0 46.6-36.9 84.4-82.3 84.4H300.2l0.2 57.4h421z m-60.5-109.1c16.8 0 30.6-14.6 30.6-32.7 0-18-13.7-32.7-30.6-32.7-16.8 0-30.5 14.7-30.5 32.7-0.1 18.1 13.6 32.7 30.5 32.7z m-333.7-32.7c0-18-13.7-32.7-30.6-32.7-16.8 0-30.5 14.7-30.5 32.7s13.7 32.7 30.5 32.7c16.9 0 30.6-14.6 30.6-32.7z"  horiz-adv-x="1024" />

    
    <glyph glyph-name="top" unicode="&#58880;" d="M989.867 158.72000000000003l-477.867 457.387-27.307-27.307-450.56-430.08 47.787-47.787 430.08 409.6 430.08-409.6z"  horiz-adv-x="1024" />

    
    <glyph glyph-name="nav" unicode="&#58923;" d="M981.43194075 667.50388148H76.06423703a38.83614815 38.83614815 0 0 0 0 77.6722963h905.36770372a38.83614815 38.83614815 0 0 0 0-77.6722963zM981.43194075 341.02780208H76.06423703a38.83614815 38.83614815 0 0 0 0 77.67229629h905.36770372a38.83614815 38.83614815 0 0 0 0-77.67229629zM981.43194075 14.57114075000004H76.06423703a38.83614815 38.83614815 0 0 0 0 77.67229628h905.36770372a38.83614815 38.83614815 0 0 0 0-77.67229628z"  horiz-adv-x="1024" />

    
    <glyph glyph-name="good" unicode="&#58887;" d="M797.952-106.11199999999997H109.312A109.44 109.44 0 0 0 0 3.2000000000000455V393.792c0 62.208 51.2 116.8 109.312 116.8h109.888c138.816 0 243.456 106.496 243.456 247.744v28.8C462.656 845.12 515.2 896 575.104 896h2.944c45.952 0 88.256-30.464 102.848-74.048l7.168-20.288a356.928 356.928 0 0 0 8.384-200.64l-3.84-15.872c-1.28-10.56-6.336-29.952-15.424-48.832h241.728c33.856 0 65.28-15.936 86.08-43.584 21.12-28.032 28.096-64.576 18.56-97.92l-120.256-419.264a109.696 109.696 0 0 0-105.344-81.664zM109.312 459.2c-30.208 0-57.984-31.104-57.984-65.408v-390.592c0-31.936 26.048-57.984 57.984-57.984h688.64a59.136 59.136 0 0 1 56.128 44.096l120.128 419.776a59.072 59.072 0 0 1-10.176 52.736 56.064 56.064 0 0 1-44.992 23.04H616.704V536.3199999999999c7.296 4.096 23.744 40.704 24.832 53.504l0.704 5.312 4.288 18.048a306.88 306.88 0 0 1-6.72 171.648l-7.424 20.288a59.008 59.008 0 0 1-54.336 39.552h-2.944c-31.488 0-61.12-28.032-61.12-57.536v-28.8c0-170.56-126.784-299.136-294.784-299.136H109.312zM231.232-80.44799999999998a25.6 25.6 0 0 0-25.664 25.6V459.2a25.6 25.6 0 1 0 51.328 0v-513.984a25.6 25.6 0 0 0-25.664-25.664z"  horiz-adv-x="1026" />

    
    <glyph glyph-name="menu" unicode="&#58972;" d="M275 462.5h474v-64H275zM275 290h474v-64H275zM275 117.5h237v-64H275zM852.153 732.996H736.204c-0.681 46.657-38.378 84.514-84.987 85.398-4.558 43.546-41.485 77.6-86.219 77.6H458.999c-44.732 0-81.66-34.054-86.218-77.6-46.605-0.888-84.307-38.744-84.987-85.398H171.846c-46.965 0-85.038-38.073-85.038-85.039v-690.912c0-46.966 38.073-85.039 85.038-85.039h680.307c46.964 0 85.038 38.073 85.038 85.039V647.957c0 46.966-38.074 85.039-85.038 85.039z m-477.699 25.415h27.854c16.567 0 29.999 13.431 29.999 30v20.89c0 14.719 11.975 26.693 26.692 26.693h105.999c14.719 0 26.693-11.975 26.693-26.693v-20.891c0-16.568 13.432-30 30-30h27.854c14.29 0 25.99-11.288 26.66-25.415 0.02-0.424 0.032-0.849 0.032-1.278V662.689c0-14.718-11.974-26.692-26.692-26.692H374.454c-14.719 0-26.693 11.974-26.693 26.692V731.717c0 0.429 0.012 0.854 0.032 1.278 0.669 14.128 12.371 25.416 26.661 25.416z m502.737-801.366c0-13.806-11.231-25.039-25.038-25.039H171.846c-13.807 0-25.039 11.233-25.039 25.039V647.957c0 13.807 11.232 25.04 25.039 25.04h115.916v-10.307c0-47.802 38.89-86.691 86.692-86.691h275.091c47.803 0 86.691 38.889 86.691 86.691v10.307h115.917c13.807 0 25.038-11.233 25.038-25.04v-690.912z"  horiz-adv-x="1024" />

    
    <glyph glyph-name="location" unicode="&#58897;" d="M512.103132 575.879021a106.221743 106.221743 0 1 0-75.507022-31.354611A106.221743 106.221743 0 0 0 512.103132 575.879021m0 63.989002a170.850635 170.850635 0 1 1 120.939214-49.911422A169.570855 169.570855 0 0 1 512.103132 639.868023zM805.172761 771.685367a407.609942 407.609942 0 0 1-586.139257 0 431.285873 431.285873 0 0 1 0-599.576948L512.103132-128l293.069629 300.108419a431.285873 431.285873 0 0 1 0 599.576948z m-44.152411-557.344207l-248.917218-255.956007-248.917217 255.956007a365.377201 365.377201 0 0 0 0 508.712565 346.82039 346.82039 0 0 0 497.834435 0 365.377201 365.377201 0 0 0 0-508.712565z"  horiz-adv-x="1024" />

    
    <glyph glyph-name="cloud" unicode="&#59286;" d="M747.9296 587.88977778c-43.69066667 87.38133333-131.072 145.63555555-235.9296 145.63555555-136.89742222 0-250.49315555-107.77031111-262.144-241.75502222-101.94488889-29.12711111-174.76266667-116.50844445-174.76266667-224.27875556 0-125.24657778 101.94488889-224.27875555 233.01688889-233.01688888h407.77955556c151.46097778 0 291.27111111 125.24657778 291.27111111 276.70755555 0 148.54826667-116.50844445 267.96942222-259.23128889 276.70755556zM715.88977778 92.72888889000001H308.11022222s-174.76266667 17.47626667-174.76266667 174.76266666c0 87.38133333 78.6432 168.93724445 174.76266667 174.76266667 0 119.42115555 78.6432 233.01688889 203.88977778 233.01688889 99.03217778 0 166.02453333-61.16693333 189.32622222-145.63555556 145.63555555 5.82542222 241.75502222-107.77031111 247.58044445-203.88977777 5.82542222-128.15928889-128.15928889-233.01688889-233.01688889-233.01688889z"  horiz-adv-x="1024" />

    
    <glyph glyph-name="collection" unicode="&#58898;" d="M992.12066 395.918909c30.237461 30.237461 39.541296 76.756633 25.585544 116.297928-13.955751 41.867254-46.519171 72.104715-88.386426 79.082592l-186.076684 32.563419c-20.933627 4.651917-37.215337 16.28171-46.519172 34.889379l-88.386425 172.120933C592.055787 872.740414 554.84045 896 512.973196 896c-41.867254 0-79.082591-23.259586-100.016218-62.800881L326.896511 661.078185c-9.303834-18.607668-27.911503-32.56342-46.519171-34.889378L94.300655 593.625387c-41.867254-6.977876-74.430674-37.215337-88.386425-79.082591-13.955751-41.867254-2.325959-86.060467 25.585544-116.297928l130.253679-139.557514c13.955751-13.955751 20.933627-37.215337 18.607669-58.148964l-27.911503-193.05456C145.471743-34.38342399999999 164.079412-78.576637 196.642832-104.16218100000003c18.607668-13.955751 41.867254-23.259586 65.12684-23.259586 16.28171 0 34.889378 4.651917 48.845129 11.629793l169.794975 86.060467c18.607668 9.303834 39.541296 9.303834 58.148964 0l169.794975-86.060467c37.215337-18.607668 81.40855-16.28171 116.297928 9.303834 32.56342 25.585544 51.171088 67.452798 44.193213 111.646011L843.259312 198.21243200000004c-2.325959 20.933627 4.651917 41.867254 18.607668 58.148964l130.25368 139.557513z"  horiz-adv-x="1024" />

    
    <glyph glyph-name="shouhou" unicode="&#58905;" d="M751.974343 574.5246010000001a39.056251 39.056251 0 0 1-54.339132 0l-101.602856-101.602857-101.31984 101.31984a38.490219 38.490219 0 0 1-54.622149-54.339132l62.829622-62.829621H441.505448a7.64144 7.64144 0 0 1-7.358424-7.641441v-61.980572a7.64144 7.64144 0 0 1 7.358424-7.641441h116.036688V329.149457h-116.036688a7.64144 7.64144 0 0 1-7.358424-7.64144v-61.980572a7.64144 7.64144 0 0 1 7.358424-7.641441h116.036688v-115.753672a38.490219 38.490219 0 1 1 76.980437 0v114.904623h116.036688a7.358424 7.358424 0 0 1 7.358424 7.641441V320.65896799999996a7.358424 7.358424 0 0 1-7.358424 7.641441h-116.036688v51.508968h116.036688a7.358424 7.358424 0 0 1 7.358424 7.641441v61.980572a7.358424 7.358424 0 0 1-7.358424 7.641441h-61.41454l62.829622 62.829621a38.207202 38.207202 0 0 1 0 54.622149zM1067.537531 583.864139a511.97651 511.97651 0 0 1-942.727337 0 525.278276 525.278276 0 0 1-25.471468-77.263453l-25.471468 56.603262a38.773235 38.773235 0 0 1-35.377039 22.924321 37.64117 37.64117 0 0 1-15.565898-3.396195 38.207202 38.207202 0 0 1-19.528125-50.65992l78.961551-178.017261v-2.830163H84.904894a16.697962 16.697962 0 0 1 0-2.264131v-1.698098l1.415081-1.698097h4.528261l4.811278-2.264131H123.961145l5.943343 4.245245 146.319433 128.489406a38.207202 38.207202 0 0 1 3.679212 54.339132 37.924186 37.924186 0 0 1-28.301631 13.01875 39.9053 39.9053 0 0 1-25.471468-9.339538L169.809788 465.56332a434.43004 434.43004 0 1 0 144.055303-412.071751 37.64117 37.64117 0 0 1-25.188452 9.339538 38.490219 38.490219 0 0 1-24.905436-67.640898 511.410477 511.410477 0 0 1 804.049345 189.337913 513.391591 513.391591 0 0 1 0 398.203952z"  horiz-adv-x="1108" />

    
    <glyph glyph-name="app" unicode="&#58922;" d="M707.764706-128h-391.529412A105.411765 105.411765 0 0 0 210.823529-22.588235000000054v813.17647A105.411765 105.411765 0 0 0 316.235294 896h391.529412A105.411765 105.411765 0 0 0 813.176471 790.5882349999999v-813.17647a105.411765 105.411765 0 0 0-105.411765-105.411765zM316.235294 835.764706A45.176471 45.176471 0 0 1 271.058824 790.5882349999999v-813.17647A45.176471 45.176471 0 0 1 316.235294-67.76470600000005h391.529412a45.176471 45.176471 0 0 1 45.17647 45.176471v813.17647A45.176471 45.176471 0 0 1 707.764706 835.764706zM602.352941 710.174118H421.647059a30.117647 30.117647 0 0 0 0 60.235294h180.705882a30.117647 30.117647 0 0 0 0-60.235294zM512 50.296471m-60.235294 0a60.235294 60.235294 0 1 1 120.470588 0 60.235294 60.235294 0 1 1-120.470588 0Z"  horiz-adv-x="1024" />

    
    <glyph glyph-name="more" unicode="&#58900;" d="M337.780914 414.61704H139.086259c-73.697654 0-133.486682 59.96966-133.486682 133.486682v198.694655C5.599577 820.496031 65.569236 880.285059 139.086259 880.285059h198.694655c73.697654 0 133.486682-59.96966 133.486682-133.486682v-198.694655c0-73.697654-59.789028-133.486682-133.486682-133.486682zM139.26689 810.561298c-35.223143 0-63.943553-28.720409-63.943553-63.943552v-198.694656c0-35.223143 28.720409-63.943553 63.943553-63.943552h198.694655c35.223143 0 63.943553 28.720409 63.943553 63.943552v198.694656c0 35.223143-28.720409 63.943553-63.943553 63.943552h-198.694655zM884.010584 414.61704h-198.694655c-73.697654 0-133.486682 59.96966-133.486682 133.486682v198.694655c0 73.697654 59.96966 133.486682 133.486682 133.486682h198.694655c73.697654 0 133.486682-59.96966 133.486682-133.486682v-198.694655c0-73.697654-59.789028-133.486682-133.486682-133.486682zM685.49656 810.561298c-35.223143 0-63.943553-28.720409-63.943552-63.943552v-198.694656c0-35.223143 28.720409-63.943553 63.943552-63.943552h198.694655c35.223143 0 63.943553 28.720409 63.943553 63.943552v198.694656c0 35.223143-28.720409 63.943553-63.943553 63.943552h-198.694655zM337.780914-120.95537100000001H139.086259c-73.697654 0-133.486682 59.96966-133.486682 133.486682v198.694655c0 73.697654 59.96966 133.486682 133.486682 133.486682h198.694655c73.697654 0 133.486682-59.96966 133.486682-133.486682v-198.694655c0-73.517022-59.789028-133.486682-133.486682-133.486682zM139.26689 275.16951800000004c-35.223143 0-63.943553-28.720409-63.943553-63.943552v-198.694655c0-35.223143 28.720409-63.943553 63.943553-63.943553h198.694655c35.223143 0 63.943553 28.720409 63.943553 63.943553v198.694655c0 35.223143-28.720409 63.943553-63.943553 63.943552h-198.694655zM884.010584-120.95537100000001h-198.694655c-73.697654 0-133.486682 59.96966-133.486682 133.486682v198.694655c0 73.697654 59.96966 133.486682 133.486682 133.486682h198.694655c73.697654 0 133.486682-59.96966 133.486682-133.486682v-198.694655c0-73.517022-59.789028-133.486682-133.486682-133.486682zM685.49656 275.16951800000004c-35.223143 0-63.943553-28.720409-63.943552-63.943552v-198.694655c0-35.223143 28.720409-63.943553 63.943552-63.943553h198.694655c35.223143 0 63.943553 28.720409 63.943553 63.943553v198.694655c0 35.223143-28.720409 63.943553-63.943553 63.943552h-198.694655z"  horiz-adv-x="1024" />

    
    <glyph glyph-name="recent" unicode="&#58927;" d="M512 866.0992A482.0992 482.0992 0 1 1 994.0992 384 482.7136 482.7136 0 0 1 512 866.0992z m0-915.2512A433.152 433.152 0 1 0 945.152 384 433.5616 433.5616 0 0 0 512-49.152000000000044zM755.0976 408.4736H536.4736V616.8576a24.4736 24.4736 0 0 1-49.0496 0V384a24.4736 24.4736 0 0 1 24.576-24.4736h243.0976a24.4736 24.4736 0 1 1 0 49.0496z"  horiz-adv-x="1024" />

    
    <glyph glyph-name="icon-add" unicode="&#58911;" d="M954.25422222 474.79466667H553.41511111V842.18311111c0 22.98311111-18.77333333 41.75644445-41.75644444 41.75644444-22.98311111 0-41.75644445-18.77333333-41.75644445-41.75644444v-367.38844444H69.17688889c-22.98311111 0-41.75644445-18.77333333-41.75644444-41.75644445 0-22.98311111 18.77333333-41.75644445 41.75644444-41.75644444h400.83911111v-434.176c0-22.98311111 18.77333333-41.75644445 41.75644445-41.75644445 22.98311111 0 41.75644445 18.77333333 41.75644444 41.75644445V391.28177778h400.83911111c22.98311111 0 41.75644445 18.77333333 41.75644445 41.75644444-0.11377778 22.98311111-18.88711111 41.75644445-41.87022223 41.75644445z"  horiz-adv-x="1024" />

    
    <glyph glyph-name="true" unicode="&#59271;" d="M516.23780048-120.16776836999998c-4.90267534 0-9.69350258 1.46645296-13.75110333 4.21294535l-266.17363873 180.11273443a26.09789155 26.09789155 0 0 0-1.50994944 1.10605351c-40.14725651 31.88292418-72.73233825 71.01112016-94.946615 116.28474823-22.25777323 45.37304861-34.50514091 93.80327879-34.5051409 143.94851328V773.46132119c0 11.76269255 9.31446177 21.87251863 20.87209945 24.09705321L509.48963138 871.16064237a25.73749211 25.73749211 0 0 0 9.50708907 0l381.27155427-73.60226797c11.55763769-2.21832078 18.39279977-12.33436065 18.39279977-24.09705321v-448.76567286c0-49.90289693-9.54437177-98.11564468-31.59087636-143.30227978-21.99679431-45.08721456-52.52511365-84.12220379-92.34303961-116.02376931-0.49088891-0.39146837-0.58409567-0.76429539-1.09983971-1.11226728l-263.7502631-180.15001713a23.90442591 23.90442591 0 0 0-13.63925523-4.2750832z m-251.63338485 224.4356536l251.57124702-170.23281835 249.39020894 170.20796321c33.77191443 27.2225864 59.2546414 60.41661895 77.92084765 98.66867144 18.75319922 38.42603842 27.16044857 79.39972816 27.16044857 121.77773302v428.5025242L512 822.07175111 153.35283219 753.19195875v-427.69473232c0-42.5892735 11.0978177-83.74937676 30.02500285-122.33075977 18.84640597-38.41361086 47.1688321-71.67599502 81.22658059-98.89858143zM278.26852598 228.81075199999998h76.50410496V480.36957147h40.36473895v-251.55881947h119.21765413V547.4846492500001H299.86142435v36.6053998h427.09820909v-36.6053998h-172.24608427v-122.96456572h156.28908773v-36.13936602h-156.28908773v-159.56996551h191.02413863v-36.6053998H278.26852598v36.6053998z"  horiz-adv-x="1024" />

    
    <glyph glyph-name="mine" unicode="&#58888;" d="M933.61493333-100.96640000000002H88.20053333c-17.47626667 0-34.95253333 8.73813333-45.8752 21.84533333-10.92266667 15.29173333-15.29173333 32.768-10.92266666 50.24426667 43.69066667 222.8224 225.00693333 388.84693333 443.46026666 406.3232 73.18186667 0 152.3712-9.28426667 231.56053334-41.50613333 22.9376-9.28426667 30.58346667-15.29173333 43.69066666-21.84533334 126.70293333-72.0896 214.08426667-196.608 242.4832-342.97173333 4.36906667-17.47626667 0-34.95253333-13.1072-50.24426667-10.92266667-13.1072-28.39893333-21.84533333-45.8752-21.84533333zM89.2928-65.46773332999999c-7.09973333 0-13.65333333 2.73066667-17.47626667 7.64586666-0.54613333 0.54613333-0.54613333 1.09226667-1.09226666 1.6384-5.46133333 5.46133333-6.00746667 14.7456-4.9152 20.20693334 40.41386667 207.53066667 210.26133333 363.17866667 413.42293333 377.92426666h16.384c97.75786667 0 191.6928-30.58346667 237.568-59.52853333C853.33333333 210.32960000000003 933.61493333 97.27999999999997 958.73706667-35.97653333000005c1.09226667-7.64586667-0.54613333-14.7456-6.00746667-21.84533334-3.82293333-4.9152-10.37653333-7.64586667-17.47626667-7.64586666H89.2928zM495.616 328.84053332999997c95.0272 0 186.23146667-29.4912 230.46826667-57.344h0.54613333c116.87253333-69.35893333 194.42346667-179.13173333 218.45333333-309.11146666 0.54613333-2.73066667 0.54613333-6.5536-3.82293333-11.4688-0.54613333-1.09226667-3.2768-2.18453333-6.5536-2.18453334H89.2928c-3.2768 0-6.00746667 1.09226667-6.5536 2.18453334-0.54613333 1.09226667-1.6384 2.18453333-2.73066667 2.73066666-1.09226667 1.09226667-2.18453333 4.36906667-1.09226666 8.192 39.3216 201.5232 203.70773333 352.256 400.86186666 367.0016 4.9152-0.54613333 10.37653333 0 15.83786667 0m0 27.30666667c-5.46133333 0-11.4688 0-16.93013333-0.54613333C268.97066667 340.30933332999996 94.208 180.83839999999998 52.70186667-33.245866670000055c-2.18453333-10.92266667 0-24.02986667 8.73813333-32.768 6.5536-8.73813333 17.47626667-13.1072 28.39893333-13.1072H935.25333333c10.92266667 0 21.84533333 4.36906667 28.39893334 13.1072 6.5536 8.73813333 10.92266667 19.6608 8.73813333 32.768-26.2144 139.81013333-109.22666667 254.49813333-231.56053333 327.68-46.42133333 28.94506667-141.44853333 61.71306667-245.21386667 61.71306667zM512 357.78560000000004c-137.6256 0-251.22133333 113.59573333-251.22133333 251.22133333S374.3744 860.22826667 512 860.22826667s251.22133333-113.59573333 251.22133333-251.22133334S649.6256 357.78560000000004 512 357.78560000000004zM512 393.28426667c-119.05706667 0-215.72266667 96.6656-215.72266667 215.72266666S392.94293333 824.7296 512 824.7296s215.72266667-96.6656 215.72266667-215.72266667-96.6656-215.72266667-215.72266667-215.72266666zM512 811.07626667c111.4112 0 202.06933333-90.65813333 202.06933333-202.06933334S623.4112 406.9376 512 406.9376s-202.06933333 90.65813333-202.06933333 202.06933333 90.65813333 202.06933333 202.06933333 202.06933334m0 27.30666666c-126.70293333 0-229.376-102.67306667-229.376-229.376s102.67306667-229.376 229.376-229.376 229.376 102.67306667 229.376 229.376S638.70293333 838.38293333 512 838.38293333z"  horiz-adv-x="1024" />

    
    <glyph glyph-name="self_support" unicode="&#58884;" d="M511.14666667 861.44C247.25333333 861.44 33.38666667 647.46666667 33.38666667 383.67999999999995s213.86666667-477.76 477.76-477.76c263.89333333 0 477.76 213.97333333 477.76 477.76S774.93333333 861.44 511.14666667 861.44z m0-931.62666667c-250.24 0-453.86666667 203.62666667-453.86666667 453.86666667S260.8 837.65333333 511.14666667 837.65333333s453.86666667-203.62666667 453.86666666-453.86666666-203.62666667-453.97333333-453.86666666-453.97333334zM511.14666667 664.10666667l-41.28 5.65333333c-5.65333333-23.78666667-15.25333333-46.4-27.73333334-69.01333333H321.17333333v-450.56h41.28v35.09333333h297.38666667v-35.09333333h41.28V600.74666667h-216.53333333c11.2 19.2 20.26666667 40.74666667 26.56 63.36z m148.58666666-439.89333334H362.45333333v92.16h297.38666667v-92.16z m0 129.49333334H362.45333333v86.50666666h297.38666667v-86.50666666z m0 208.10666666v-84.26666666H362.45333333v84.26666666h297.28z"  horiz-adv-x="1024" />

    


  </font>
</defs>
</svg>
